<svg width="140" height="120" viewBox="0 0 140 120" fill="none" xmlns="http://www.w3.org/2000/svg">
<path d="M0 119.998V93.6513H18.5977V97.9488H5.54344V104.696H17.0812V108.953H5.54344V119.998H0Z" fill="white"/>
<path d="M17.4192 119.998L27.5224 93.6513H33.5987L43.6609 119.998H37.9125L35.4123 113.659H25.678L23.2188 119.998H17.4294H17.4192ZM26.4977 109.402H34.5823L30.5144 98.8063L26.4875 109.402H26.4977Z" fill="white"/>
<path d="M46.7656 119.998V93.6513H51.5713L64.0927 111.199V93.6513H69.6362V119.998H64.8305L52.3091 102.451V119.998H46.7656Z" fill="white"/>
<path d="M74.3086 119.998V93.6513H79.893L87.6497 109.484L95.4064 93.6513H100.95V119.998H95.4064V102.859L89.2482 115.455H86.041L79.8418 102.859V119.998H74.2983H74.3086Z" fill="white"/>
<path d="M105.643 119.998V93.6513H111.186V119.998H105.643Z" fill="white"/>
<path d="M114.219 119.999L123.79 106.79L114.465 93.663H120.993L127.11 102.462L133.227 93.663H139.754L130.43 106.79L140 119.999H133.391L127.11 111.2L120.829 119.999H114.219Z" fill="white"/>
<path d="M92.0867 0H47.9236L20.3396 27.4798L70.0051 76.9475L81.1023 65.8923L42.5339 27.4798L54.42 15.6284H60.363L69.8617 25.0911L79.3603 15.6284H85.5903L97.4764 27.4798L81.1125 43.7717L92.2096 54.8269L119.671 27.4798L92.0867 0Z" fill="url(#paint0_linear_0_72)"/>
<defs>
<linearGradient id="paint0_linear_0_72" x1="52.5449" y1="-2.65407" x2="91.2921" y2="64.7127" gradientUnits="userSpaceOnUse">
<stop stop-color="#FF3A1C"/>
<stop offset="1" stop-color="#FF5B46"/>
</linearGradient>
</defs>
</svg>
